General

Format                           : MPEG-4
Format profile                   : Base Media
Codec ID                         : isom
File size                        : 700 MiB
Duration                         : 2h 6mn
Overall bit rate                 : 775 Kbps
Encoded date                     : UTC 2011-01-04 22:22:56
Tagged date                      : UTC 2011-01-04 22:22:56

Source : DVD9 @ [DDR]

Encoder : RmD

Video
ID                               : 1
Format                           : AVC
Format/Info                      : Advanced Video Codec
Format profile                   : High@L4.1
Format settings, CABAC           : Yes
Format settings, ReFrames        : 3 frames
Codec ID                         : avc1
Codec ID/Info                    : Advanced Video Coding
Duration                         : 2h 6mn
Bit rate mode                    : Variable
Bit rate                         : 660 Kbps
Maximum bit rate                 : 10 000 Kbps
Width                            : 640 pixels
Height                           : 272 pixels
Display aspect ratio             : 2.35:1
Frame rate mode                  : Constant
Frame rate                       : 23.976 fps
Color space                      : YUV
Chroma subsampling               : 4:2:0
Bit depth                        : 8 bits
Scan type                        : Progressive
Bits/(Pixel*Frame)               : 0.158
Stream size                      : 595 MiB (85%)
Title                            : Imported with GPAC 0.4.6-DEV (internal rev. 5)
Writing library                  : x264 core 98 r1649 20cbe10

Subtitles                        : English

Audio Language                   : Hindi

ID                               : 2
Format                           : AAC
Format/Info                      : Advanced Audio Codec
Format version                   : Version 4
Format profile                   : LC
Codec ID                         : 40
Duration                         : 2h 6mn
Bit rate mode                    : Variable
Bit rate                         : 112 Kbps
Maximum bit rate                 : 186 Kbps
Channel(s)                       : 2 channels
Channel positions                : Front: L R
Sampling rate                    : 48.0 KHz
Compression mode                 : Lossy
Stream size                      : 101 MiB (14%)
Encoded date                     : UTC 2011-01-04 22:25:14
Tagged date                      : UTC 2011-01-04 22:25:22

Screenshots :
 
http://img829.imageshack.us/img829/5528/vlcsnap2011010523h39m31.png 
http://img838.imageshack.us/img838/2016/vlcsnap2011010523h39m38.png 
http://img340.imageshack.us/img340/5955/vlcsnap2011010523h40m05.png 
http://img204.imageshack.us/img204/526/vlcsnap2011010523h40m32.png 
http://img143.imageshack.us/img143/9936/vlcsnap2011010523h41m09.png 
http://img837.imageshack.us/img837/2739/vlcsnap2011010523h41m22.png



